# xmcd CD database file
#
# Track frame offsets:
#	150
#	26531
#	52103
#	79577
#	98063
#	120191
#	137060
#	162910
#	184589
#	212365
#	232159
#	266181
#	287268
#	313865
#
# Disc length: 4469 seconds
#
# Revision: 0
# Processed by: cddbd v1.5.2PL0 Copyright (c) Steve Scherf et al.
# Submitted via: CDex 1.51
#
DISCID=ba11730e
DTITLE=Manolito Simonet y su Trabuco - Hablando en serio
DYEAR=2006
DGENRE=Salsa
TTITLE0=01 - Comunícate
TTITLE1=02 - Mi amigo
TTITLE2=03 - Amar y...
TTITLE3=04 - Sabrosona
TTITLE4=05 - En la confianza
TTITLE5=06 - 72 hacheros pa' un palo
TTITLE6=07 - La raspadura
TTITLE7=08 - El cantor
TTITLE8=09 - Hablando en serio
TTITLE9=10 - La bomba
TTITLE10=11 - Sacude la mata
TTITLE11=12 - Ella no esta pa na
TTITLE12=13 - No juegas limpio
TTITLE13=12 - Locos por mi habana
EXTD=YEAR: 2006
EXTT0=
EXTT1=
EXTT2=
EXTT3=
EXTT4=
EXTT5=
EXTT6=
EXTT7=
EXTT8=
EXTT9=
EXTT10=
EXTT11=
EXTT12=
EXTT13=
PLAYORDER=
